<?xml version="1.0" encoding="utf-8"?>
<!-- Generator: Adobe Illustrator 26.0.1, SVG Export Plug-In . SVG Version: 6.00 Build 0)  -->
<svg version="1.1"
	 id="logo" xmlns:cc="http://creativecommons.org/ns#" xmlns:dc="http://purl.org/dc/elements/1.1/" xmlns:rdf="http://www.w3.org/1999/02/22-rdf-syntax-ns#"
	 xmlns="http://www.w3.org/2000/svg" xmlns:xlink="http://www.w3.org/1999/xlink" x="0px" y="0px" viewBox="0 0 400 85"
	 style="enable-background:new 0 0 400 85;" xml:space="preserve">
<path id="S" d="M17.9,27.1c0,15,10,27.1,22.4,27.1h62.1c1.4,0,2.9,1.4,2.9,3.3c0,1.9-1.2,3.3-2.9,3.3H17.6v24h94.8
	c12.4,0,22.4-12.4,22.4-27.4s-10-27.4-22.4-27.4H50.5c-1.4,0-2.9-1.4-2.9-3.3c0-1.9,1.2-3.3,2.9-3.3h84V0H40.2
	C27.9,0,17.9,12.1,17.9,27.1L17.9,27.1z"/>
<polygon id="N" points="141.4,0 141.4,84.5 171.2,84.5 171.2,31.4 227.9,84.5 258.8,84.5 258.8,0 229.1,0 229.1,52.9 172.4,0 "/>
<polygon id="K" points="295.5,37.1 295.5,0 265.2,0 265.2,84.5 295.5,84.5 295.5,47.1 343.6,84.5 382.4,84.5 327.6,42.4 382.4,0 
	343.6,0 "/>
<path id="mark" d="M397.4,2.6C395.7,1,393.6,0,391.2,0s-4.5,1-6.2,2.6c-1.7,1.7-2.6,3.8-2.6,6.2s1,4.5,2.6,6.2
	c1.7,1.7,3.8,2.6,6.2,2.6s4.5-1,6.2-2.6c1.7-1.7,2.6-3.8,2.6-6.2C399.8,6.2,399.1,4.3,397.4,2.6L397.4,2.6z M396.4,14
	c-1.4,1.4-3.1,2.1-5.2,2.1s-3.8-0.7-5.2-2.1s-2.1-3.3-2.1-5.2c0-2.1,0.7-3.8,2.1-5.2c1.4-1.4,3.3-2.1,5.2-2.1c2.1,0,3.8,0.7,5.2,2.1
	s2.1,3.3,2.1,5.2S397.9,12.6,396.4,14z"/>
<path id="R" d="M395.2,7.4V7.1c0-1.4-1.2-2.6-2.6-2.6h-5v8.8h1.4V10h3.1c0.7,0,1.2,0.5,1.2,1l0.2,2.1h1.4l-0.2-2.1
	c0-0.7-0.5-1.2-0.7-1.7C394.8,9,395.2,8.3,395.2,7.4L395.2,7.4z M389,6h3.6c0.7,0,1.2,0.5,1.2,1.2v0.5c0,0.7-0.5,1.2-1.2,1.2H389V6
	L389,6z"/>
</svg>
